<?xml version="1.0" standalone="no"?>
<!DOCTYPE svg PUBLIC "-//W3C//DTD SVG 20010904//EN"
 "http://www.w3.org/TR/2001/REC-SVG-20010904/DTD/svg10.dtd">
<svg version="1.0" xmlns="http://www.w3.org/2000/svg"
 width="380.000000pt" height="380.000000pt" viewBox="0 0 380.000000 380.000000"
 preserveAspectRatio="xMidYMid meet">
<metadata>
Created by potrace 1.11, written by Peter Selinger 2001-2013
</metadata>
<g transform="translate(0.000000,380.000000) scale(0.100000,-0.100000)"
fill="#000000" stroke="none">
<path d="M0 1900 l0 -1900 1900 0 1900 0 0 1900 0 1900 -1900 0 -1900 0 0
-1900z m2034 1421 c3 -5 -1 -11 -9 -15 -15 -6 -29 7 -18 18 9 9 21 8 27 -3z
m123 -23 c15 -6 32 -10 37 -9 5 1 26 -6 45 -16 20 -10 37 -19 39 -19 1 -1 -2
-13 -7 -28 -13 -32 -7 -32 47 -1 l44 25 36 -20 c20 -10 57 -29 82 -40 25 -12
53 -29 62 -37 24 -21 83 -125 80 -140 -2 -7 1 -13 6 -13 5 0 22 -10 38 -22 15
-13 50 -33 78 -44 28 -12 53 -31 57 -42 6 -16 5 -20 -7 -15 -9 3 -28 -6 -45
-23 -25 -24 -31 -26 -39 -14 -7 11 -12 12 -21 3 -8 -8 -6 -13 10 -18 31 -10
26 -28 -6 -22 -16 3 -36 9 -45 12 -11 4 -23 -1 -35 -14 -21 -25 -48 -27 -70
-6 -23 23 -27 11 -8 -25 13 -25 19 -29 30 -20 38 32 124 -37 98 -80 -7 -11
-10 -32 -7 -50 5 -25 3 -30 -13 -30 -10 0 -29 7 -42 16 -22 16 -23 16 -12 -2
6 -11 17 -27 25 -38 14 -17 16 -17 31 -2 9 9 21 16 26 16 5 0 9 11 9 25 0 14
5 25 10 25 6 0 13 8 17 18 21 58 46 103 70 122 l28 21 -34 -5 c-32 -6 -33 -5
-19 11 8 10 18 26 22 37 6 17 8 18 24 2 10 -9 24 -16 32 -16 24 0 37 -31 30
-71 -7 -36 -5 -41 32 -71 31 -27 68 -78 68 -95 0 -2 -12 -8 -26 -13 -19 -7
-25 -16 -22 -33 3 -19 8 -22 46 -20 31 1 42 -2 42 -13 0 -8 -5 -14 -10 -14
-18 0 -60 -54 -58 -75 0 -11 -2 -28 -6 -37 -12 -27 8 -73 32 -76 12 -2 22 -10
22 -19 0 -9 -6 -13 -15 -9 -18 6 -20 -5 -4 -21 7 -7 12 -25 13 -40 1 -20 7
-29 21 -31 21 -3 60 -60 50 -71 -4 -3 -117 -7 -251 -9 -223 -2 -245 -1 -251
15 -4 9 -1 19 5 21 7 2 12 11 12 20 -1 15 -2 15 -15 -2 -13 -18 -15 -18 -43 3
-37 26 -42 26 -42 1 0 -15 7 -20 26 -20 35 0 29 -31 -8 -41 -24 -6 -28 -4 -28
13 0 11 -9 32 -19 47 -12 17 -18 36 -14 49 3 14 1 23 -8 24 -8 0 -19 2 -25 2
-20 2 -45 29 -40 43 3 7 1 13 -4 13 -16 0 -11 37 5 44 18 6 11 29 -21 73 -13
17 -24 39 -24 48 0 11 -7 15 -22 13 -17 -2 -22 -9 -21 -26 2 -12 -1 -22 -6
-22 -11 0 -31 55 -31 86 0 31 -30 81 -58 96 -22 11 -26 10 -44 -15 -26 -36
-74 -37 -114 -2 -26 23 -23 32 9 26 5 -1 7 6 5 16 -2 10 -11 17 -21 17 -9 -1
-17 4 -17 11 0 8 -15 16 -32 20 -102 20 -135 48 -45 38 30 -3 61 -14 73 -24
26 -24 34 -24 34 1 0 28 -57 62 -81 49 -14 -7 -26 -2 -54 23 -31 27 -36 36
-31 62 4 16 3 51 0 77 -5 40 -13 53 -45 79 -36 28 -41 30 -55 16 -17 -18 -40
-21 -48 -7 -3 5 -18 12 -33 16 -21 5 -31 1 -45 -17 -15 -21 -19 -22 -39 -10
-19 12 -21 12 -15 -3 4 -12 0 -18 -14 -22 -20 -5 -20 -7 -4 -24 16 -18 16 -19
-4 -19 -12 0 -22 5 -22 10 0 6 -7 10 -14 10 -22 0 -15 -127 8 -162 9 -14 14
-32 10 -41 -3 -8 2 -28 12 -42 10 -15 26 -50 35 -78 l17 -50 -27 -28 c-43 -43
-53 -93 -40 -197 15 -106 9 -132 -31 -156 -17 -10 -45 -31 -62 -48 -18 -18
-34 -26 -40 -20 -14 14 2 41 33 58 40 20 40 54 0 54 -23 0 -33 -7 -45 -32 -9
-17 -16 -46 -16 -65 l0 -33 -127 -1 c-124 -2 -329 -1 -405 0 -32 1 -38 4 -38
24 0 12 -11 40 -23 62 -17 30 -23 55 -22 95 0 30 4 60 8 66 4 7 29 12 57 12
28 0 64 5 81 12 26 11 30 18 27 41 -3 19 -1 26 6 20 6 -5 26 -12 44 -16 25 -5
32 -3 32 9 0 8 -5 18 -10 21 -6 4 -8 11 -4 16 7 13 44 -19 44 -38 0 -16 16
-17 26 -2 4 8 9 8 17 0 17 -17 35 -13 48 11 9 17 8 24 -5 34 -15 10 -15 12 -1
18 30 11 14 22 -36 24 -29 1 -57 -2 -64 -8 -9 -7 -16 -6 -25 5 -16 19 -30 19
-30 0 0 -20 -10 -19 -27 3 -34 44 -34 50 0 48 29 -1 32 2 35 32 6 57 51 52 52
-5 0 -14 6 -23 15 -23 17 0 20 16 5 25 -18 11 -11 35 10 35 13 0 20 -7 20 -19
0 -14 6 -17 23 -14 12 2 36 -1 52 -8 44 -19 49 -17 51 19 2 37 -17 52 -40 33
-9 -8 -16 -9 -20 -2 -4 6 2 16 13 23 15 9 17 15 9 25 -12 15 -44 17 -53 3 -14
-23 -27 -9 -22 23 3 17 3 26 0 20 -2 -7 -9 -13 -14 -13 -12 0 -12 67 1 75 6 4
10 -5 10 -19 0 -33 6 -33 41 5 35 38 36 41 5 33 -30 -7 -38 5 -27 44 7 24 6
32 -6 36 -12 5 -11 13 9 47 13 23 30 44 38 47 8 3 20 12 26 20 6 8 16 12 22 8
22 -13 12 -37 -23 -57 -47 -28 -62 -55 -36 -68 21 -12 31 -5 31 19 0 10 7 23
15 30 12 10 15 9 15 -6 0 -11 -4 -25 -9 -33 -14 -22 29 -94 47 -77 3 4 -4 16
-15 28 l-22 21 21 41 c12 23 26 51 32 62 6 12 35 41 64 64 30 23 52 44 49 46
-2 3 -26 -6 -51 -20 -40 -21 -48 -23 -53 -10 -3 8 0 27 8 42 7 15 13 34 14 42
0 24 28 60 46 60 9 0 24 9 35 21 17 19 52 38 102 53 36 12 25 -9 -20 -39 -24
-16 -38 -30 -31 -32 6 -2 28 8 48 22 39 26 61 33 50 15 -15 -24 27 -7 52 20
15 17 33 28 40 26 7 -3 17 4 23 14 10 19 12 19 35 4 40 -26 27 -54 -25 -54
-19 0 -45 -54 -34 -71 3 -5 23 -9 46 -9 30 0 41 4 44 18 9 31 84 56 84 28 0
-23 22 -31 35 -13 7 10 17 17 23 17 18 0 25 -20 12 -35 -16 -19 26 -43 44 -24
8 9 7 11 -6 6 -10 -4 -18 -3 -18 2 0 15 36 19 55 5 10 -7 22 -11 27 -8 5 3 16
0 25 -8 14 -11 16 -11 12 1 -6 16 -21 26 -61 41 -23 8 -28 15 -28 45 0 24 5
35 15 35 9 0 15 -9 15 -25 0 -16 6 -25 16 -25 10 0 14 7 12 23 -3 19 2 22 31
22 24 1 39 8 55 27 24 30 74 37 123 16z m487 -214 c26 -27 33 -44 17 -44 -4 0
-20 12 -35 26 -14 15 -26 31 -26 35 0 16 17 9 44 -17z m-1514 -34 c0 -5 -7
-10 -16 -10 -8 0 -12 5 -9 10 3 6 10 10 16 10 5 0 9 -4 9 -10z m-34 -36 c-3
-9 -6 -20 -6 -25 0 -5 -7 -9 -15 -9 -18 0 -19 4 -3 30 15 24 33 27 24 4z m139
-4 c0 -8 -8 -16 -17 -18 -13 -2 -18 3 -18 18 0 15 5 20 18 18 9 -2 17 -10 17
-18z m1512 -17 c13 -14 21 -28 19 -31 -7 -6 -66 38 -66 49 0 18 25 9 47 -18z
m-1032 -68 c33 -26 0 -35 -46 -12 -36 18 -48 35 -33 50 7 7 46 -12 79 -38z
m-95 -25 c0 -5 -2 -10 -4 -10 -3 0 -8 5 -11 10 -3 6 -1 10 4 10 6 0 11 -4 11
-10z m-618 -124 c16 -23 16 -25 -2 -41 -19 -17 -21 -17 -40 0 -23 21 -25 36
-8 53 18 18 31 14 50 -12z m1912 -45 c3 -5 -1 -11 -9 -15 -9 -3 -15 0 -15 9 0
16 16 20 24 6z m-1344 -22 c0 -5 -4 -9 -10 -9 -5 0 -10 7 -10 16 0 8 5 12 10
9 6 -3 10 -10 10 -16z m1130 -43 c0 -3 -4 -8 -10 -11 -5 -3 -10 -1 -10 4 0 6
5 11 10 11 6 0 10 -2 10 -4z m-1745 -41 c0 -10 -6 -20 -12 -22 -8 -3 -13 5
-13 22 0 17 5 25 13 23 6 -3 12 -13 12 -23z m145 15 c0 -5 -5 -10 -11 -10 -5
0 -7 5 -4 10 3 6 8 10 11 10 2 0 4 -4 4 -10z m-380 -224 c0 -2 -7 -7 -16 -10
-8 -3 -12 -2 -9 4 6 10 25 14 25 6z m873 -161 c-5 -16 -33 -21 -33 -7 0 13 22
32 31 26 5 -2 6 -11 2 -19z m397 -60 c-7 -8 -24 -15 -39 -15 -25 0 -24 1 9 18
40 20 49 19 30 -3z m1143 -37 c-18 -18 -24 -19 -37 -8 -20 16 -20 29 1 52 16
18 17 18 37 -2 l20 -20 -21 -22z m17 -32 c0 -3 -4 -8 -10 -11 -5 -3 -10 -1
-10 4 0 6 5 11 10 11 6 0 10 -2 10 -4z m-1150 -45 c19 -16 32 -32 28 -36 -11
-11 -38 2 -45 22 -4 10 -14 23 -22 30 -9 7 -11 13 -6 13 6 0 26 -13 45 -29z
m75 -11 c19 -36 4 -40 -19 -5 -19 28 -20 35 -6 35 5 0 16 -13 25 -30z m-632
-15 c16 -2 36 -10 46 -19 10 -9 29 -16 44 -16 31 0 42 -14 23 -30 -15 -12 -56
2 -56 19 0 5 -20 11 -45 15 -25 3 -55 10 -65 16 -28 15 -26 34 3 25 12 -4 35
-8 50 -10z m1604 0 c18 -2 35 1 38 6 4 5 19 9 34 9 24 0 30 -5 35 -31 10 -50
7 -124 -5 -136 -9 -9 -22 -7 -51 8 -43 22 -57 44 -39 62 20 20 11 30 -14 13
-34 -22 -100 -21 -122 3 -22 22 -52 32 -109 36 -60 4 -76 -16 -40 -50 32 -30
40 -32 27 -6 -12 22 -5 31 25 31 25 0 38 -22 21 -39 -8 -8 -7 -11 4 -11 8 0
21 6 28 13 10 10 14 8 22 -6 6 -9 15 -15 20 -11 6 3 29 -1 52 -9 23 -8 58 -18
77 -21 49 -8 106 -44 92 -58 -8 -8 -15 -8 -27 2 -10 8 -15 9 -15 1 0 -6 5 -11
11 -11 7 0 9 -10 5 -24 -3 -14 -2 -28 4 -31 13 -8 13 -35 0 -55 -8 -12 -14
-10 -40 15 l-30 29 2 -43 c1 -35 6 -44 25 -52 26 -10 27 -16 13 -53 -9 -23
-40 -37 -40 -18 0 14 -58 42 -74 36 -12 -5 -5 -14 30 -37 43 -28 45 -32 39
-64 -3 -19 -11 -46 -17 -59 -12 -26 -43 -32 -51 -10 -3 7 -24 16 -47 19 -23 3
-44 8 -47 10 -10 11 9 27 33 27 27 0 31 12 10 30 -13 10 -107 40 -128 40 -18
0 -6 -17 22 -33 34 -20 42 -44 9 -27 -16 9 -28 8 -54 -4 -18 -9 -40 -13 -49
-10 -26 10 -18 -15 9 -28 19 -8 28 -8 40 2 13 10 19 8 36 -14 14 -18 25 -24
33 -17 7 5 27 0 56 -15 25 -13 53 -26 63 -30 24 -9 22 -20 -15 -68 -17 -22
-32 -42 -33 -43 -3 -7 -97 22 -135 41 -60 30 -97 39 -119 27 -15 -8 -20 -5
-30 15 -6 14 -16 22 -21 19 -18 -11 -11 -30 20 -57 17 -14 30 -32 29 -40 0
-10 -2 -10 -6 0 -7 17 -28 15 -43 -3 -15 -19 -13 -22 20 -27 33 -4 40 -15 40
-67 0 -37 -2 -42 -15 -31 -8 7 -15 19 -15 26 0 21 -18 17 -25 -7 -5 -15 -10
-18 -20 -9 -8 6 -16 21 -18 33 -3 12 -3 5 -2 -15 4 -54 -17 -67 -41 -23 -18
34 -18 34 4 58 20 21 21 28 11 50 -6 14 -19 27 -29 30 -13 3 -22 21 -29 59 -7
31 -18 64 -26 74 -17 22 -19 53 -5 74 9 13 12 13 21 -2 7 -13 23 -18 52 -18
45 0 67 13 67 40 0 9 9 26 20 38 11 12 20 28 20 36 0 15 27 29 41 20 13 -8 11
4 -6 30 -13 19 -13 26 -3 37 37 39 39 45 22 78 -8 17 -20 29 -24 26 -21 -13
-45 61 -46 142 l-1 82 106 3 c110 4 262 0 318 -7z m-1823 -1 c9 -3 16 -12 16
-19 0 -7 5 -15 12 -17 7 -3 -12 -12 -42 -22 -30 -9 -62 -20 -70 -23 -58 -23
-116 -41 -122 -37 -17 10 -7 34 13 34 17 0 20 4 15 20 -3 11 -9 29 -12 40 -6
18 0 19 72 23 44 1 84 4 91 5 6 1 18 -1 27 -4z m-242 -41 c6 -50 2 -60 -30
-66 -15 -3 -45 -10 -67 -16 -47 -12 -52 -9 -35 24 12 23 11 29 -8 55 -12 16
-22 32 -22 35 0 3 36 5 79 5 l79 0 4 -37z m903 -8 c5 -22 15 -44 22 -48 18
-11 17 -47 -1 -47 -8 0 -18 5 -21 10 -3 6 -17 10 -30 10 -17 0 -29 9 -40 30
-18 34 -45 40 -45 10 0 -13 -6 -20 -17 -19 -32 1 -118 34 -118 44 0 6 23 11
50 13 28 1 59 6 70 11 89 41 117 38 130 -14z m-265 -55 c0 -5 -4 -10 -10 -10
-5 0 -10 5 -10 10 0 6 5 10 10 10 6 0 10 -4 10 -10z m-519 -50 c5 0 9 -4 9
-10 0 -5 -16 -10 -35 -10 -19 0 -35 4 -35 9 0 12 21 21 38 15 8 -2 18 -4 23
-4z m248 -27 c8 -15 13 -16 33 -5 22 12 30 9 94 -32 38 -25 74 -46 80 -46 21
0 47 27 41 43 -3 8 1 21 10 28 13 11 18 9 35 -14 11 -15 33 -34 50 -43 l30
-15 -22 29 c-13 17 -31 33 -42 36 -30 7 -16 31 20 34 24 2 34 -1 38 -15 3 -10
13 -31 21 -47 9 -17 12 -31 6 -35 -22 -14 -23 -58 -3 -76 27 -24 25 -36 -10
-70 -27 -26 -30 -35 -30 -89 0 -60 -28 -194 -48 -232 -6 -12 -7 -38 -2 -69 4
-27 5 -54 0 -58 -8 -9 -176 -18 -196 -10 -9 3 -11 19 -7 54 4 33 2 49 -6 49
-6 0 -11 -6 -11 -13 0 -7 -7 -22 -15 -33 -14 -19 -15 -19 -21 4 -6 21 -7 21
-23 -10 -13 -27 -23 -34 -56 -38 -22 -3 -46 -10 -54 -14 -11 -7 -13 -4 -7 15
4 13 10 38 13 54 3 17 21 54 39 83 38 59 40 64 19 56 -23 -9 -19 29 5 51 26
23 64 84 57 91 -3 3 -20 -13 -37 -35 -18 -22 -37 -38 -42 -35 -5 4 -25 -10
-43 -30 l-33 -36 1 33 c1 26 5 33 17 30 17 -4 47 23 37 33 -3 3 -15 0 -28 -6
-22 -12 -21 -11 4 35 15 26 27 53 27 60 0 8 5 15 11 17 6 2 17 18 25 36 l13
32 -24 -17 c-13 -10 -25 -21 -25 -25 0 -17 -64 -99 -90 -118 -36 -26 -39 -12
-10 43 11 20 20 46 20 57 0 11 5 20 10 20 6 0 10 7 10 15 0 8 9 24 20 35 11
11 20 28 20 38 -1 16 -1 16 -14 0 -7 -10 -18 -18 -24 -18 -12 0 -42 -50 -42
-69 0 -5 -5 -22 -11 -38 -11 -28 -11 -28 -20 -5 -9 25 -29 30 -29 8 0 -8 -3
-17 -7 -19 -5 -3 -9 23 -11 56 -5 107 -5 105 -24 93 -10 -6 -20 -23 -23 -38
-12 -54 -22 -36 -24 44 -1 44 -4 85 -8 91 -4 6 0 8 11 4 9 -4 27 -1 39 7 12 8
44 17 71 21 l49 7 -8 -66 c-5 -54 -4 -66 8 -66 21 0 46 32 30 37 -17 6 -16 23
1 23 8 0 17 7 20 16 5 14 4 15 -7 5 -11 -9 -17 -8 -28 5 -11 13 -10 17 4 25 9
6 17 16 17 24 0 27 94 34 109 8z m-329 -2 c0 -5 -4 -21 -9 -34 -5 -13 -6 -61
-2 -106 4 -45 3 -85 -1 -87 -9 -6 -12 3 -22 49 -4 15 -13 27 -21 27 -18 0 -20
-21 -4 -37 16 -16 25 -143 10 -143 -14 0 -31 42 -31 74 0 12 -11 33 -25 46
-28 26 -33 50 -10 50 17 0 20 25 5 35 -5 3 -10 26 -10 49 0 48 22 71 76 79 16
2 32 5 37 6 4 0 7 -3 7 -8z m-263 -73 c-3 -8 -6 -5 -6 6 -1 11 2 17 5 13 3 -3
4 -12 1 -19z m53 -48 c0 -5 -4 -10 -10 -10 -5 0 -10 5 -10 10 0 6 5 10 10 10
6 0 10 -4 10 -10z m10 -54 c0 -8 7 -16 15 -20 8 -3 15 -1 15 4 0 6 7 10 15 10
20 0 50 -71 34 -81 -9 -5 -6 -15 10 -34 29 -38 27 -48 -9 -40 -33 7 -39 -4
-15 -29 18 -17 20 -49 3 -44 -12 4 -22 20 -33 53 -5 13 -9 15 -12 8 -6 -17
-38 -16 -52 1 -8 10 -8 21 1 43 13 30 38 34 38 7 0 -8 7 -14 15 -14 19 0 20
16 2 27 -15 9 -57 92 -57 111 0 7 7 12 15 12 8 0 15 -6 15 -14z m267 -154 c9
-6 7 -11 -7 -20 -17 -11 -20 -10 -20 8 0 21 7 25 27 12z m83 -74 c0 -6 -6 -5
-15 2 -8 7 -15 14 -15 16 0 2 7 1 15 -2 8 -4 15 -11 15 -16z m-70 -35 c-1 -21
-7 -49 -15 -63 -13 -24 -14 -23 -11 25 5 74 5 75 16 75 6 0 10 -17 10 -37z
m-192 -38 c12 -25 12 -25 -13 -9 -27 18 -33 34 -12 34 8 0 19 -11 25 -25z
m296 -43 c-4 -17 -17 -38 -30 -47 -13 -8 -24 -13 -24 -11 0 22 48 101 57 93 2
-2 0 -18 -3 -35z m1514 -12 c3 -8 6 -39 7 -69 0 -34 5 -56 13 -58 7 -3 12 5
12 22 0 24 3 26 23 20 35 -11 58 -8 78 11 11 9 22 14 26 10 11 -10 -36 -44
-76 -56 -19 -5 -47 -23 -62 -39 -35 -39 -39 -29 -38 102 0 56 3 95 6 87 2 -8
7 -22 11 -30z m-229 -15 c17 -10 13 -25 -7 -25 -15 0 -17 -7 -14 -42 2 -24 9
-49 14 -55 13 -16 -14 -18 -41 -3 -15 8 -18 18 -14 57 3 26 12 55 19 64 8 8
14 24 15 35 0 17 1 17 9 -2 5 -12 13 -25 19 -29z m-1243 -23 c-36 -35 -37 -36
-20 -7 20 34 45 57 53 50 3 -3 -12 -22 -33 -43z m643 -8 c3 -16 1 -17 -13 -5
-19 16 -21 34 -3 29 6 -3 14 -13 16 -24z m120 2 c13 -14 30 -22 41 -19 11 3
33 -9 60 -33 52 -47 37 -57 -21 -15 -43 31 -63 34 -39 6 17 -20 5 -19 -21 3
-39 32 -68 66 -63 74 8 13 19 9 43 -16z m-919 -15 c0 -6 -4 -13 -10 -16 -5 -3
-10 1 -10 9 0 9 5 16 10 16 6 0 10 -4 10 -9z m65 -68 c-4 -11 -9 -13 -16 -6
-7 7 -6 19 3 39 12 27 13 27 16 5 2 -12 1 -30 -3 -38z m65 2 c-7 -9 -15 -13
-17 -11 -7 7 7 26 19 26 6 0 6 -6 -2 -15z m-323 -59 c3 -3 22 -266 21 -286 -3
-39 3 -60 17 -60 10 0 15 10 15 28 3 174 7 212 21 229 27 31 30 52 8 63 -30
16 -13 30 37 30 52 0 51 4 28 -125 -9 -49 -18 -110 -20 -135 -18 -244 -31
-280 -100 -280 -23 0 -45 4 -49 10 -3 5 -10 56 -15 112 -5 57 -14 116 -19 131
-6 16 -11 47 -11 70 0 23 -8 79 -17 125 -15 73 -16 84 -3 93 12 8 78 4 87 -5z
m307 -171 c-1 -99 -2 -202 -3 -230 0 -27 0 -68 2 -90 l2 -40 -45 0 -45 0 -3
65 c-8 191 -7 456 1 468 6 8 26 12 51 10 l41 -3 -1 -180z m238 167 c21 -17 11
-62 -12 -62 -42 0 -50 -10 -50 -67 0 -51 2 -55 30 -64 19 -7 30 -18 30 -29 0
-10 3 -25 6 -34 9 -22 -43 -22 -68 1 -26 23 -29 14 -12 -37 11 -31 13 -62 9
-105 -8 -68 2 -81 51 -69 22 6 24 3 24 -25 0 -40 -14 -45 -98 -35 l-67 9 3 40
c1 22 -3 50 -9 61 -7 13 -9 39 -5 65 10 64 10 91 3 226 -7 107 -5 123 9 131
23 13 139 9 156 -6z m569 -3 c15 -15 19 -28 15 -47 -7 -28 -7 -29 -3 -77 2
-28 0 -30 -43 -36 -25 -4 -48 -5 -52 -2 -5 2 -8 26 -8 52 0 42 -3 49 -26 60
-37 16 -46 5 -29 -36 20 -47 19 -127 -2 -181 -13 -35 -14 -48 -5 -63 7 -10 12
-41 12 -68 0 -40 4 -53 22 -65 44 -31 51 -22 44 48 l-6 64 33 21 c62 38 67 33
67 -72 0 -124 -5 -131 -107 -135 -65 -2 -84 0 -110 17 -37 24 -34 -6 -37 320
l-1 184 30 19 c22 13 50 18 108 18 65 0 80 -3 98 -21z m273 14 c26 -4 40 -12
44 -25 2 -10 7 -18 11 -18 4 0 8 -36 9 -80 1 -63 -2 -82 -13 -86 -20 -8 -19
-24 1 -24 15 0 16 -8 9 -67 -5 -38 -8 -100 -7 -139 3 -95 -9 -107 -120 -110
-118 -4 -119 -3 -119 114 0 53 -2 153 -5 222 -7 166 -3 184 44 204 40 16 85
19 146 9z m151 -3 c4 -6 23 -9 43 -8 l37 3 -3 -43 c-1 -27 5 -56 17 -81 11
-21 18 -41 14 -44 -6 -7 19 -67 28 -67 13 0 18 61 12 144 l-6 85 26 6 c14 4
35 4 47 0 21 -7 21 -10 16 -173 -3 -92 -5 -180 -6 -197 0 -16 2 -61 4 -98 l5
-68 -52 3 -52 3 -24 118 c-25 119 -41 143 -52 76 -3 -19 -1 -67 5 -107 11 -81
8 -86 -46 -96 l-38 -7 0 281 c0 258 4 304 25 270z m525 -27 c33 -33 38 -45 36
-78 -3 -55 -11 -65 -55 -65 -46 0 -54 17 -44 98 4 33 2 52 -5 52 -16 0 -52
-68 -52 -98 0 -15 -5 -70 -11 -122 -8 -63 -9 -118 -3 -165 8 -66 11 -70 34
-70 23 0 25 4 28 59 2 32 -2 64 -7 69 -22 22 -11 45 24 57 40 13 65 8 65 -14
0 -8 6 -19 13 -23 9 -6 11 -35 7 -112 -5 -109 -13 -126 -45 -95 -16 16 -20 16
-67 -1 -42 -15 -56 -16 -88 -6 -22 6 -42 16 -45 21 -3 5 -8 58 -11 119 -4 87
-1 121 12 161 16 48 16 54 0 86 -24 51 -21 110 7 137 18 19 35 23 95 25 73 3
73 3 112 -35z m-1415 -2 c0 -36 19 -36 32 0 12 30 12 30 80 27 l68 -3 0 -35
c0 -31 -3 -35 -24 -32 -38 4 -47 -12 -44 -75 6 -131 2 -285 -7 -302 -6 -12 -5
-22 1 -28 6 -6 9 -21 7 -34 -2 -18 -12 -25 -38 -30 -61 -13 -62 -9 -59 228 2
125 -1 217 -7 222 -5 5 -20 11 -34 13 -17 2 -26 10 -28 26 -5 36 5 54 30 50
17 -2 23 -10 23 -27z m-10 -99 c4 -10 -1 -22 -11 -29 -21 -15 -64 -17 -64 -3
0 6 -7 10 -15 10 -23 0 -18 30 6 38 31 12 77 3 84 -16z m525 -152 c0 -5 -2
-10 -4 -10 -3 0 -8 5 -11 10 -3 6 -1 10 4 10 6 0 11 -4 11 -10z m-100 -20 c0
-5 -4 -10 -10 -10 -5 0 -10 5 -10 10 0 6 5 10 10 10 6 0 10 -4 10 -10z"/>
<path d="M1980 3215 c-14 -16 -10 -18 14 -9 9 3 16 10 16 15 0 14 -16 11 -30
-6z"/>
<path d="M2100 3190 c0 -5 5 -10 10 -10 6 0 10 5 10 10 0 6 -4 10 -10 10 -5 0
-10 -4 -10 -10z"/>
<path d="M1525 3179 c-11 -17 1 -21 15 -4 8 9 8 15 2 15 -6 0 -14 -5 -17 -11z"/>
<path d="M1328 3151 c-20 -19 -23 -31 -9 -31 5 0 16 11 25 25 19 29 9 32 -16
6z"/>
<path d="M1445 3130 c-3 -5 -2 -10 4 -10 5 0 13 5 16 10 3 6 2 10 -4 10 -5 0
-13 -4 -16 -10z"/>
<path d="M2585 2860 c-3 -5 -2 -10 4 -10 5 0 13 5 16 10 3 6 2 10 -4 10 -5 0
-13 -4 -16 -10z"/>
<path d="M1182 2757 c-11 -13 -11 -20 3 -41 18 -26 35 -34 35 -16 0 6 -4 10
-9 10 -6 0 -11 14 -13 32 -3 27 -5 29 -16 15z"/>
<path d="M2590 2716 c0 -9 5 -16 10 -16 6 0 10 4 10 9 0 6 -4 13 -10 16 -5 3
-10 -1 -10 -9z"/>
<path d="M2860 2633 c0 -5 4 -15 10 -23 11 -18 25 -7 17 15 -6 15 -27 21 -27
8z"/>
<path d="M2668 2545 c-10 -13 -18 -31 -18 -39 0 -8 -5 -18 -12 -22 -7 -5 -4
-10 10 -15 13 -5 22 -17 22 -29 0 -13 7 -20 20 -20 17 0 19 -3 10 -19 -14 -27
-13 -41 5 -41 10 0 15 -10 15 -28 0 -28 34 -71 46 -59 4 3 15 2 25 -4 17 -9
19 -6 19 30 0 74 -45 194 -94 249 -24 27 -27 27 -48 -3z m42 -15 c0 -5 -4 -10
-10 -10 -5 0 -10 5 -10 10 0 6 5 10 10 10 6 0 10 -4 10 -10z m35 -101 c11 -17
-1 -21 -15 -4 -8 9 -8 15 -2 15 6 0 14 -5 17 -11z"/>
<path d="M2421 2414 c0 -11 3 -14 6 -6 3 7 2 16 -1 19 -3 4 -6 -2 -5 -13z"/>
<path d="M2500 2404 c0 -8 5 -12 10 -9 6 4 8 11 5 16 -9 14 -15 11 -15 -7z"/>
<path d="M2580 2370 c0 -5 7 -10 15 -10 8 0 15 5 15 10 0 6 -7 10 -15 10 -8 0
-15 -4 -15 -10z"/>
<path d="M797 2323 c-7 -11 10 -40 18 -31 4 4 3 14 -3 24 -5 9 -12 12 -15 7z"/>
<path d="M2680 2289 c0 -11 5 -17 10 -14 6 3 10 13 10 21 0 8 -4 14 -10 14 -5
0 -10 -9 -10 -21z"/>
<path d="M1090 2270 c0 -5 5 -10 10 -10 6 0 10 5 10 10 0 6 -4 10 -10 10 -5 0
-10 -4 -10 -10z"/>
<path d="M2772 2203 c0 -46 10 -73 29 -73 13 0 11 34 -3 48 -9 9 -8 12 5 12
11 0 17 8 17 25 0 14 -4 25 -9 25 -5 0 -16 2 -24 5 -11 5 -14 -5 -15 -42z"/>
<path d="M2725 2220 c10 -11 24 -20 32 -20 24 0 14 15 -18 27 -31 12 -31 12
-14 -7z"/>
<path d="M2661 2214 c0 -11 3 -14 6 -6 3 7 2 16 -1 19 -3 4 -6 -2 -5 -13z"/>
<path d="M940 2206 c0 -9 7 -16 16 -16 17 0 14 22 -4 28 -7 2 -12 -3 -12 -12z"/>
<path d="M1077 2214 c-7 -12 3 -64 14 -64 15 0 16 15 4 44 -7 16 -15 25 -18
20z"/>
<path d="M1010 2200 c0 -5 5 -10 11 -10 5 0 7 5 4 10 -3 6 -8 10 -11 10 -2 0
-4 -4 -4 -10z"/>
<path d="M2625 2169 c-4 -6 -5 -13 -2 -16 7 -7 27 6 27 18 0 12 -17 12 -25 -2z"/>
<path d="M1135 2160 c28 -12 37 -12 30 0 -3 6 -16 10 -28 9 -21 0 -21 -1 -2
-9z"/>
<path d="M2950 2155 c0 -8 7 -15 16 -15 14 0 14 3 4 15 -7 8 -14 15 -16 15 -2
0 -4 -7 -4 -15z"/>
<path d="M1320 2140 c0 -5 5 -10 10 -10 6 0 10 5 10 10 0 6 -4 10 -10 10 -5 0
-10 -4 -10 -10z"/>
<path d="M2940 2024 c0 -8 5 -12 10 -9 6 3 10 10 10 16 0 5 -4 9 -10 9 -5 0
-10 -7 -10 -16z"/>
<path d="M2674 2005 c-4 -8 -12 -15 -20 -15 -8 0 -14 -4 -14 -10 0 -5 8 -10
19 -10 12 0 20 9 23 25 6 28 1 33 -8 10z"/>
<path d="M2727 1963 c-3 -5 -8 -29 -11 -55 -9 -59 15 -107 52 -108 20 0 14 17
-8 23 -11 3 -20 10 -20 16 0 15 37 14 43 -1 3 -10 9 -9 21 3 18 16 12 50 -8
48 -23 -3 -37 1 -32 10 5 8 -21 71 -29 71 -2 0 -6 -3 -8 -7z"/>
<path d="M3030 1853 c-19 -8 -39 -34 -40 -52 0 -12 3 -11 18 1 9 9 23 13 30
11 8 -3 10 1 5 13 -5 14 -3 16 11 11 23 -9 43 3 25 14 -16 10 -27 10 -49 2z"/>
<path d="M2905 1630 c3 -5 8 -10 11 -10 2 0 4 5 4 10 0 6 -5 10 -11 10 -5 0
-7 -4 -4 -10z"/>
<path d="M2650 1610 c0 -5 7 -10 15 -10 8 0 15 5 15 10 0 6 -7 10 -15 10 -8 0
-15 -4 -15 -10z"/>
<path d="M2720 1576 c0 -18 16 -29 30 -21 13 8 1 35 -16 35 -8 0 -14 -6 -14
-14z"/>
<path d="M2660 1500 c6 -11 17 -20 25 -20 7 0 17 -5 21 -11 4 -8 -3 -9 -25 -4
-42 9 -42 -14 0 -37 38 -22 55 -23 67 -2 8 14 14 12 45 -16 20 -17 42 -30 49
-27 7 2 25 -2 41 -10 43 -21 32 1 -25 51 -39 34 -63 47 -97 52 -26 4 -57 15
-70 25 -31 25 -44 24 -31 -1z"/>
<path d="M1370 1735 c-7 -9 -10 -18 -7 -22 8 -7 37 15 37 28 0 14 -16 11 -30
-6z"/>
<path d="M1176 1703 c-6 -14 -5 -15 5 -6 7 7 10 15 7 18 -3 3 -9 -2 -12 -12z"/>
<path d="M1150 1620 c0 -5 5 -10 10 -10 6 0 10 5 10 10 0 6 -4 10 -10 10 -5 0
-10 -4 -10 -10z"/>
<path d="M1326 1547 c-28 -36 -34 -61 -13 -55 15 5 60 88 47 88 -5 0 -20 -15
-34 -33z"/>
<path d="M1395 1330 c-3 -5 -1 -10 4 -10 6 0 11 5 11 10 0 6 -2 10 -4 10 -3 0
-8 -4 -11 -10z"/>
<path d="M960 1770 c0 -5 5 -10 10 -10 6 0 10 5 10 10 0 6 -4 10 -10 10 -5 0
-10 -4 -10 -10z"/>
<path d="M2207 1083 c-8 -15 -18 -175 -18 -285 0 -123 10 -148 42 -109 17 21
19 39 18 175 0 83 2 159 6 168 13 31 -32 79 -48 51z"/>
</g>
</svg>
